<svg width="1920" height="484" viewBox="0 0 1920 484" fill="none" xmlns="http://www.w3.org/2000/svg">
<g clip-path="url(#clip0_2492_15120)">
<g opacity="0.8" clip-path="url(#clip1_2492_15120)">
<path d="M50.0829 163.335C51.2502 164.232 51.4507 165.783 50.5507 166.954C49.6506 168.126 48.1002 168.331 46.9329 167.434C45.7656 166.537 45.5651 164.986 46.4652 163.815C47.3652 162.644 49.0129 162.513 50.0829 163.335Z" fill="#FFCF2D"/>
<path d="M63.5082 145.864C64.6755 146.761 64.876 148.312 63.9759 149.484C63.0759 150.655 61.5255 150.86 60.3582 149.963C59.1909 149.066 58.9904 147.515 59.8905 146.344C60.7155 145.27 62.4382 145.042 63.5082 145.864Z" fill="#FFCF2D"/>
<path d="M76.8583 128.492C78.0256 129.389 78.2261 130.94 77.326 132.112C76.426 133.283 74.8756 133.488 73.7083 132.591C72.541 131.694 72.3405 130.143 73.2406 128.972C74.1406 127.801 75.7883 127.67 76.8583 128.492Z" fill="#FFCF2D"/>
<path d="M90.2836 111.022C91.4509 111.92 91.6514 113.471 90.7513 114.642C89.8513 115.813 88.3008 116.019 87.1336 115.122C85.9663 114.225 85.7658 112.673 86.6659 111.502C87.5659 110.331 89.2136 110.2 90.2836 111.022Z" fill="#FFCF2D"/>
<path d="M103.709 93.5528C104.876 94.4498 105.077 96.001 104.177 97.1721C103.277 98.3433 101.726 98.5489 100.559 97.6518C99.3916 96.7548 99.1911 95.2037 100.091 94.0325C100.916 92.9589 102.639 92.7305 103.709 93.5528Z" fill="#FFCF2D"/>
<path d="M117.134 76.0831C118.301 76.9801 118.502 78.5312 117.602 79.7024C116.702 80.8736 115.151 81.0792 113.984 80.1821C112.817 79.2851 112.616 77.7339 113.516 76.5628C114.416 75.3916 116.064 75.2608 117.134 76.0831Z" fill="#FFCF2D"/>
<path d="M130.484 58.711C131.652 59.608 131.852 61.1592 130.952 62.3303C130.052 63.5015 128.502 63.7071 127.334 62.81C126.167 61.913 125.967 60.3619 126.867 59.1907C127.767 58.0195 129.414 57.8887 130.484 58.711Z" fill="#FFCF2D"/>
<path d="M143.91 41.2413C145.077 42.1383 145.277 43.6894 144.377 44.8606C143.477 46.0318 141.927 46.2374 140.76 45.3403C139.592 44.4433 139.392 42.8921 140.292 41.721C141.192 40.5498 142.84 40.419 143.91 41.2413Z" fill="#FFCF2D"/>
<path d="M157.335 23.7715C158.502 24.6686 158.703 26.2197 157.803 27.3909C156.903 28.562 155.352 28.7676 154.185 27.8706C153.018 26.9736 152.817 25.4224 153.717 24.2513C154.542 23.1777 156.265 22.9493 157.335 23.7715Z" fill="#FFCF2D"/>
<path d="M64.5766 174.473C65.7439 175.37 65.9443 176.921 65.0443 178.092C64.1443 179.263 62.5938 179.469 61.4265 178.572C60.2593 177.675 60.0588 176.124 60.9588 174.952C61.8588 173.781 63.4093 173.576 64.5766 174.473Z" fill="#FFCF2D"/>
<path d="M78.0019 157.003C79.1692 157.9 79.3696 159.451 78.4696 160.622C77.5696 161.793 76.0191 161.999 74.8518 161.102C73.6845 160.205 73.4841 158.654 74.3841 157.483C75.2091 156.409 76.8346 156.106 78.0019 157.003Z" fill="#FFCF2D"/>
<path d="M91.352 139.631C92.5193 140.528 92.7197 142.079 91.8197 143.25C90.9197 144.421 89.3692 144.627 88.2019 143.73C87.0346 142.833 86.8342 141.282 87.7342 140.111C88.6342 138.939 90.1847 138.734 91.352 139.631Z" fill="#FFCF2D"/>
<path d="M104.777 122.161C105.945 123.058 106.145 124.609 105.245 125.781C104.345 126.952 102.795 127.157 101.627 126.26C100.46 125.363 100.259 123.812 101.16 122.641C102.06 121.47 103.61 121.264 104.777 122.161Z" fill="#FFCF2D"/>
<path d="M118.203 104.69C119.37 105.588 119.57 107.139 118.67 108.31C117.77 109.481 116.22 109.687 115.053 108.79C113.885 107.893 113.685 106.341 114.585 105.17C115.41 104.097 117.035 103.793 118.203 104.69Z" fill="#FFCF2D"/>
<path d="M131.628 87.2208C132.795 88.1178 132.996 89.6689 132.096 90.8401C131.196 92.0113 129.645 92.2169 128.478 91.3198C127.311 90.4228 127.11 88.8716 128.01 87.7005C128.91 86.5293 130.461 86.3237 131.628 87.2208Z" fill="#FFCF2D"/>
<path d="M144.978 69.8487C146.145 70.7457 146.346 72.2969 145.446 73.468C144.546 74.6392 142.995 74.8448 141.828 73.9477C140.661 73.0507 140.46 71.4996 141.36 70.3284C142.26 69.1572 143.811 68.9517 144.978 69.8487Z" fill="#FFCF2D"/>
<path d="M158.403 52.3789C159.571 53.276 159.771 54.8271 158.871 55.9983C157.971 57.1695 156.42 57.3751 155.253 56.478C154.086 55.581 153.885 54.0298 154.785 52.8587C155.685 51.6875 157.236 51.4819 158.403 52.3789Z" fill="#FFCF2D"/>
<path d="M171.829 34.9092C172.996 35.8063 173.196 37.3574 172.296 38.5286C171.396 39.6997 169.846 39.9053 168.678 39.0083C167.511 38.1113 167.311 36.5601 168.211 35.3889C169.036 34.3154 170.661 34.0122 171.829 34.9092Z" fill="#FFCF2D"/>
<path d="M21.1928 141.133C22.3601 142.03 22.5605 143.581 21.6605 144.752C20.7605 145.923 19.21 146.129 18.0427 145.232C16.8755 144.335 16.675 142.784 17.575 141.613C18.475 140.441 20.0255 140.236 21.1928 141.133Z" fill="#FFCF2D"/>
<path d="M34.6181 123.663C35.7854 124.56 35.9858 126.111 35.0858 127.282C34.1858 128.454 32.6353 128.659 31.468 127.762C30.3008 126.865 30.1003 125.314 31.0003 124.143C31.8253 123.069 33.4508 122.766 34.6181 123.663Z" fill="#FFCF2D"/>
<path d="M47.9682 106.291C49.1355 107.188 49.3359 108.739 48.4359 109.91C47.5359 111.082 45.9854 111.287 44.8181 110.39C43.6509 109.493 43.5254 107.844 44.3504 106.771C45.2504 105.6 46.8009 105.394 47.9682 106.291Z" fill="#FFCF2D"/>
<path d="M61.3935 88.8213C62.5608 89.7184 62.7612 91.2695 61.8612 92.4407C60.9612 93.6118 59.4107 93.8174 58.2434 92.9204C57.0761 92.0234 56.9507 90.3746 57.7757 89.3011C58.6007 88.2275 60.2262 87.9243 61.3935 88.8213Z" fill="#FFCF2D"/>
<path d="M74.8188 71.3516C75.9861 72.2486 76.1865 73.7998 75.2865 74.971C74.3865 76.1421 72.836 76.3477 71.6687 75.4507C70.5014 74.5536 70.301 73.0025 71.201 71.8313C72.026 70.7578 73.6515 70.4546 74.8188 71.3516Z" fill="#FFCF2D"/>
<path d="M88.2441 53.8809C89.4114 54.7779 89.6118 56.3291 88.7118 57.5002C87.8118 58.6714 86.2613 58.877 85.094 57.98C83.9267 57.0829 83.7263 55.5318 84.6263 54.3606C85.5263 53.1895 87.0768 52.9839 88.2441 53.8809Z" fill="#FFCF2D"/>
<path d="M101.594 36.5088C102.761 37.4059 102.962 38.957 102.062 40.1282C101.162 41.2993 99.6114 41.5049 98.4441 40.6079C97.2768 39.7109 97.0764 38.1597 97.9764 36.9886C98.8764 35.8174 100.427 35.6118 101.594 36.5088Z" fill="#FFCF2D"/>
<path d="M115.019 19.0391C116.187 19.9361 116.387 21.4873 115.487 22.6585C114.587 23.8296 113.037 24.0352 111.869 23.1382C110.702 22.2411 110.502 20.69 111.402 19.5188C112.302 18.3477 113.852 18.1421 115.019 19.0391Z" fill="#FFCF2D"/>
<path d="M128.445 1.5694C129.612 2.46644 129.812 4.01757 128.912 5.18873C128.012 6.35988 126.462 6.56548 125.295 5.66845C124.127 4.77141 123.927 3.22026 124.827 2.0491C125.652 0.975542 127.277 0.672364 128.445 1.5694Z" fill="#FFCF2D"/>
<path d="M35.6865 152.272C36.8537 153.169 37.0542 154.72 36.1542 155.891C35.2542 157.062 33.6064 157.193 32.5364 156.371C31.3691 155.474 31.1687 153.922 32.0687 152.751C32.9687 151.58 34.5192 151.374 35.6865 152.272Z" fill="#FFCF2D"/>
<path d="M49.1117 134.801C50.279 135.698 50.4795 137.249 49.5795 138.42C48.6794 139.591 47.129 139.797 45.9617 138.9C44.7944 138.003 44.594 136.452 45.494 135.281C46.319 134.207 47.9445 133.904 49.1117 134.801Z" fill="#FFCF2D"/>
<path d="M62.4618 117.429C63.6291 118.326 63.8296 119.877 62.9296 121.048C62.0295 122.219 60.4791 122.425 59.3118 121.528C58.1445 120.631 57.9441 119.08 58.8441 117.908C59.7441 116.737 61.2946 116.532 62.4618 117.429Z" fill="#FFCF2D"/>
<path d="M75.8871 99.959C77.0544 100.856 77.2549 102.407 76.3549 103.578C75.4548 104.75 73.9044 104.955 72.7371 104.058C71.5698 103.161 71.3693 101.61 72.2694 100.439C73.1694 99.2676 74.7199 99.062 75.8871 99.959Z" fill="#FFCF2D"/>
<path d="M89.3124 82.4893C90.4797 83.3863 90.6802 84.9375 89.7801 86.1086C88.8801 87.2798 87.3297 87.4854 86.1624 86.5884C84.9951 85.6913 84.7946 84.1402 85.6947 82.969C86.5197 81.8955 88.1451 81.5923 89.3124 82.4893Z" fill="#FFCF2D"/>
<path d="M102.738 65.0196C103.905 65.9166 104.105 67.4678 103.205 68.6389C102.305 69.8101 100.755 70.0157 99.5877 69.1186C98.4204 68.2216 98.2199 66.6705 99.1199 65.4993C100.02 64.3281 101.57 64.1225 102.738 65.0196Z" fill="#FFCF2D"/>
<path d="M116.088 47.6475C117.255 48.5445 117.456 50.0957 116.556 51.2669C115.656 52.438 114.105 52.6436 112.938 51.7466C111.77 50.8495 111.57 49.2984 112.47 48.1272C113.37 46.9561 114.921 46.7505 116.088 47.6475Z" fill="#FFCF2D"/>
<path d="M129.513 30.1778C130.68 31.0748 130.881 32.626 129.981 33.7971C129.081 34.9683 127.53 35.1739 126.363 34.2768C125.196 33.3798 124.995 31.8287 125.895 30.6575C126.795 29.4863 128.346 29.2807 129.513 30.1778Z" fill="#FFCF2D"/>
<path d="M142.938 12.7081C144.106 13.6051 144.306 15.1562 143.406 16.3274C142.506 17.4986 140.956 17.7042 139.788 16.8071C138.621 15.9101 138.421 14.3589 139.321 13.1878C140.146 12.1142 141.771 11.811 142.938 12.7081Z" fill="#FFCF2D"/>
<path d="M78.9736 185.536C80.1408 186.433 80.3413 187.984 79.4413 189.156C78.5413 190.327 76.9908 190.532 75.8235 189.635C74.6562 188.738 74.4558 187.187 75.3558 186.016C76.2558 184.845 77.9036 184.714 78.9736 185.536Z" fill="#FFCF2D"/>
<path d="M92.3989 168.066C93.5661 168.963 93.7666 170.515 92.8666 171.686C91.9665 172.857 90.4161 173.063 89.2488 172.166C88.0815 171.268 87.8811 169.717 88.7811 168.546C89.6061 167.473 91.3288 167.244 92.3989 168.066Z" fill="#FFCF2D"/>
<path d="M105.749 150.694C106.916 151.591 107.117 153.143 106.217 154.314C105.317 155.485 103.766 155.69 102.599 154.793C101.432 153.896 101.231 152.345 102.131 151.174C103.031 150.003 104.679 149.872 105.749 150.694Z" fill="#FFCF2D"/>
<path d="M119.174 133.225C120.342 134.122 120.542 135.673 119.642 136.844C118.742 138.015 117.191 138.221 116.024 137.324C114.857 136.427 114.656 134.876 115.556 133.704C116.456 132.533 118.104 132.402 119.174 133.225Z" fill="#FFCF2D"/>
<path d="M132.6 115.755C133.767 116.652 133.967 118.203 133.067 119.374C132.167 120.545 130.617 120.751 129.449 119.854C128.282 118.957 128.082 117.406 128.982 116.235C129.807 115.161 131.53 114.933 132.6 115.755Z" fill="#FFCF2D"/>
<path d="M146.025 98.2842C147.192 99.1813 147.393 100.732 146.493 101.904C145.593 103.075 144.042 103.28 142.875 102.383C141.707 101.486 141.507 99.9351 142.407 98.7639C143.307 97.5928 144.955 97.4619 146.025 98.2842Z" fill="#FFCF2D"/>
<path d="M159.375 80.9121C160.542 81.8092 160.743 83.3603 159.843 84.5315C158.943 85.7027 157.392 85.9083 156.225 85.0112C155.058 84.1142 154.857 82.563 155.757 81.3919C156.657 80.2207 158.305 80.0899 159.375 80.9121Z" fill="#FFCF2D"/>
<path d="M172.8 63.4424C173.968 64.3395 174.168 65.8906 173.268 67.0618C172.368 68.2329 170.817 68.4385 169.65 67.5415C168.483 66.6445 168.282 65.0933 169.182 63.9221C170.082 62.751 171.73 62.6201 172.8 63.4424Z" fill="#FFCF2D"/>
<path d="M186.226 45.9727C187.393 46.8697 187.593 48.4209 186.693 49.592C185.793 50.7632 184.243 50.9688 183.075 50.0718C181.908 49.1747 181.708 47.6236 182.608 46.4524C183.433 45.3789 185.155 45.1504 186.226 45.9727Z" fill="#FFCF2D"/>
<path d="M93.4672 196.674C94.6345 197.571 94.8349 199.122 93.9349 200.293C93.0349 201.464 91.4844 201.67 90.3172 200.773C89.1499 199.876 88.9494 198.325 89.8494 197.154C90.7495 195.982 92.2999 195.777 93.4672 196.674Z" fill="#FFCF2D"/>
<path d="M106.893 179.204C108.06 180.101 108.26 181.652 107.36 182.823C106.46 183.995 104.91 184.2 103.742 183.303C102.575 182.406 102.375 180.855 103.275 179.684C104.1 178.61 105.725 178.307 106.893 179.204Z" fill="#FFCF2D"/>
<path d="M120.243 161.832C121.41 162.729 121.61 164.28 120.71 165.451C119.81 166.623 118.26 166.828 117.093 165.931C115.925 165.034 115.725 163.483 116.625 162.312C117.525 161.141 119.075 160.935 120.243 161.832Z" fill="#FFCF2D"/>
<path d="M134.136 147.982C135.005 146.85 134.796 145.229 133.668 144.362C132.54 143.495 130.92 143.71 130.05 144.842C129.18 145.974 129.39 147.594 130.518 148.461C131.646 149.328 133.266 149.114 134.136 147.982Z" fill="#FFCF2D"/>
<path d="M147.093 126.893C148.26 127.79 148.461 129.341 147.561 130.512C146.661 131.683 145.11 131.889 143.943 130.992C142.776 130.095 142.575 128.544 143.475 127.372C144.3 126.299 145.926 125.996 147.093 126.893Z" fill="#FFCF2D"/>
<path d="M160.518 109.423C161.686 110.32 161.886 111.871 160.986 113.042C160.086 114.213 158.536 114.419 157.368 113.522C156.201 112.625 156.001 111.074 156.901 109.903C157.801 108.731 159.351 108.526 160.518 109.423Z" fill="#FFCF2D"/>
<path d="M173.869 92.0508C175.036 92.9479 175.236 94.499 174.336 95.6702C173.436 96.8413 171.886 97.0469 170.719 96.1499C169.551 95.2529 169.351 93.7017 170.251 92.5305C171.151 91.3594 172.701 91.1538 173.869 92.0508Z" fill="#FFCF2D"/>
<path d="M187.762 78.2004C188.631 77.0685 188.422 75.4481 187.294 74.5811C186.166 73.7141 184.546 73.9289 183.676 75.0608C182.806 76.1927 183.016 77.8132 184.144 78.6802C185.272 79.5471 186.892 79.3324 187.762 78.2004Z" fill="#FFCF2D"/>
<path d="M200.719 57.1114C201.886 58.0084 202.087 59.5595 201.187 60.7307C200.287 61.9019 198.736 62.1075 197.569 61.2104C196.402 60.3134 196.201 58.7622 197.101 57.5911C197.926 56.5175 199.552 56.2143 200.719 57.1114Z" fill="#FFCF2D"/>
<path d="M107.961 207.813C109.128 208.71 109.329 210.261 108.429 211.432C107.529 212.603 105.978 212.809 104.811 211.912C103.644 211.015 103.443 209.463 104.343 208.292C105.243 207.121 106.794 206.916 107.961 207.813Z" fill="#FFCF2D"/>
<path d="M121.386 190.343C122.553 191.24 122.754 192.791 121.854 193.962C120.954 195.133 119.403 195.339 118.236 194.442C117.069 193.545 116.868 191.994 117.768 190.823C118.593 189.749 120.219 189.446 121.386 190.343Z" fill="#FFCF2D"/>
<path d="M134.736 172.971C135.904 173.868 136.104 175.419 135.204 176.59C134.304 177.761 132.753 177.967 131.586 177.07C130.419 176.173 130.218 174.622 131.118 173.45C132.018 172.279 133.569 172.074 134.736 172.971Z" fill="#FFCF2D"/>
<path d="M148.162 155.501C149.329 156.398 149.529 157.949 148.629 159.12C147.729 160.292 146.179 160.497 145.012 159.6C143.844 158.703 143.644 157.152 144.544 155.981C145.444 154.81 146.994 154.604 148.162 155.501Z" fill="#FFCF2D"/>
<path d="M161.587 138.031C162.754 138.928 162.955 140.479 162.055 141.651C161.155 142.822 159.604 143.027 158.437 142.13C157.27 141.233 157.069 139.682 157.969 138.511C158.794 137.437 160.42 137.134 161.587 138.031Z" fill="#FFCF2D"/>
<path d="M175.012 120.561C176.179 121.458 176.38 123.009 175.48 124.18C174.58 125.351 173.029 125.557 171.862 124.66C170.695 123.763 170.494 122.211 171.394 121.04C172.294 119.869 173.845 119.664 175.012 120.561Z" fill="#FFCF2D"/>
<path d="M188.362 103.189C189.53 104.086 189.73 105.637 188.83 106.808C187.93 107.979 186.379 108.185 185.212 107.288C184.045 106.391 183.844 104.839 184.744 103.668C185.644 102.497 187.195 102.291 188.362 103.189Z" fill="#FFCF2D"/>
<path d="M201.788 85.7188C202.955 86.6158 203.155 88.167 202.255 89.3381C201.355 90.5093 199.805 90.7149 198.637 89.8179C197.47 88.9208 197.27 87.3697 198.17 86.1985C199.07 85.0274 200.62 84.8218 201.788 85.7188Z" fill="#FFCF2D"/>
<path d="M215.213 68.2491C216.38 69.1461 216.581 70.6973 215.681 71.8684C214.781 73.0396 213.23 73.2452 212.063 72.3481C210.895 71.4511 210.695 69.8999 211.595 68.7288C212.42 67.6552 214.046 67.352 215.213 68.2491Z" fill="#FFCF2D"/>
<path d="M122.357 218.876C123.525 219.773 123.725 221.324 122.825 222.495C121.925 223.667 120.375 223.872 119.207 222.975C118.04 222.078 117.84 220.527 118.74 219.356C119.64 218.185 121.287 218.054 122.357 218.876Z" fill="#FFCF2D"/>
<path d="M135.783 201.406C136.95 202.303 137.15 203.854 136.25 205.026C135.35 206.197 133.8 206.402 132.633 205.505C131.465 204.608 131.265 203.057 132.165 201.886C132.99 200.812 134.713 200.584 135.783 201.406Z" fill="#FFCF2D"/>
<path d="M149.133 184.034C150.3 184.931 150.5 186.482 149.6 187.654C148.7 188.825 147.15 189.03 145.983 188.133C144.815 187.236 144.615 185.685 145.515 184.514C146.415 183.343 148.063 183.212 149.133 184.034Z" fill="#FFCF2D"/>
<path d="M162.558 166.564C163.725 167.462 163.926 169.013 163.026 170.184C162.126 171.355 160.575 171.561 159.408 170.664C158.241 169.767 158.04 168.215 158.94 167.044C159.84 165.873 161.488 165.742 162.558 166.564Z" fill="#FFCF2D"/>
<path d="M175.983 149.094C177.151 149.991 177.351 151.542 176.451 152.713C175.551 153.884 174.001 154.09 172.833 153.193C171.666 152.296 171.466 150.745 172.366 149.574C173.191 148.5 174.913 148.272 175.983 149.094Z" fill="#FFCF2D"/>
<path d="M189.409 131.624C190.576 132.521 190.776 134.072 189.876 135.243C188.976 136.415 187.426 136.62 186.259 135.723C185.091 134.826 184.891 133.275 185.791 132.104C186.691 130.933 188.339 130.802 189.409 131.624Z" fill="#FFCF2D"/>
<path d="M202.759 114.252C203.926 115.149 204.126 116.7 203.226 117.871C202.326 119.042 200.776 119.248 199.609 118.351C198.441 117.454 198.241 115.903 199.141 114.732C200.041 113.561 201.689 113.43 202.759 114.252Z" fill="#FFCF2D"/>
<path d="M216.184 96.7823C217.351 97.6793 217.552 99.2305 216.652 100.402C215.752 101.573 214.201 101.778 213.034 100.881C211.867 99.9843 211.666 98.4332 212.566 97.262C213.466 96.0908 215.114 95.96 216.184 96.7823Z" fill="#FFCF2D"/>
<path d="M229.609 79.3126C230.777 80.2096 230.977 81.7607 230.077 82.9319C229.177 84.103 227.627 84.3086 226.459 83.4116C225.292 82.5146 225.092 80.9634 225.992 79.7923C226.817 78.7187 228.539 78.4903 229.609 79.3126Z" fill="#FFCF2D"/>
</g>
<g style="mix-blend-mode:multiply" opacity="0.12" clip-path="url(#clip2_2492_15120)">
<path d="M1941.6 197C1862.22 197 1798 261.216 1798 340.598C1798 419.784 1862.22 484.197 1941.6 484.197C2020.78 484.197 2085.2 419.981 2085.2 340.598C2085 261.216 2020.78 197 1941.6 197ZM1941.6 474.939C1867.34 474.939 1807.26 414.86 1807.26 340.598C1807.26 266.337 1867.34 206.258 1941.6 206.258C2015.86 206.258 2075.94 266.337 2075.94 340.598C2075.94 414.663 2015.66 474.939 1941.6 474.939Z" fill="#FFCF2D"/>
<path d="M1941.6 227.926C1879.55 227.926 1829.12 278.353 1829.12 340.401C1829.12 402.45 1879.55 452.877 1941.6 452.877C2003.65 452.877 2054.08 402.647 2054.08 340.598C2054.08 278.353 2003.65 227.926 1941.6 227.926ZM1941.6 435.74C1889.01 435.74 1846.26 392.995 1846.26 340.401C1846.26 287.808 1889.01 245.063 1941.6 245.063C1994.19 245.063 2036.94 287.808 2036.94 340.401C2036.94 392.995 1994.19 435.74 1941.6 435.74Z" fill="#FFCF2D"/>
</g>
</g>
<defs>
<clipPath id="clip0_2492_15120">
<rect width="1920" height="484" fill="white"/>
</clipPath>
<clipPath id="clip1_2492_15120">
<rect width="181.184" height="132.739" fill="white" transform="translate(16 143.662) rotate(-52.4584)"/>
</clipPath>
<clipPath id="clip2_2492_15120">
<rect width="287" height="287" fill="white" transform="translate(1798 197)"/>
</clipPath>
</defs>
</svg>
